<?xml version="1.0" standalone="no"?><!DOCTYPE svg PUBLIC "-//W3C//DTD SVG 1.1//EN" "http://www.w3.org/Graphics/SVG/1.1/DTD/svg11.dtd"><svg class="icon" width="200px" height="200.00px" viewBox="0 0 1024 1024" version="1.1" xmlns="http://www.w3.org/2000/svg"><path d="M830.902754 986.468147l-19.047925-341.966665a59.095769 59.095769 0 0 0-44.583826-54.023789l-81.827681-20.595919c-10.919957-2.747989-21.719915-5.943977-32.447873-9.371963-25.151902 52.615794-78.891692 89.051652-140.995449 89.051652-62.135757 0-115.899547-36.479858-141.035449-89.139652a518.025976 518.025976 0 0 1-34.659865 10.023961l-79.579689 20.031921a59.099769 59.099769 0 0 0-44.583826 54.023789l-19.047925 341.966665a26.071898 26.071898 0 0 0 26.031898 27.523892H804.866856a26.071898 26.071898 0 0 0 26.035898-27.523892z" fill="#1B87C9" /><path d="M582.419725 885.84454h-140.167453c-40.91584 0-74.087711-33.17187-74.08771-74.087711s33.17187-74.087711 74.08771-74.087711h140.167453c40.91584 0 74.087711 33.17187 74.087711 74.087711s-33.16787 74.087711-74.087711 74.087711zM512 649.565463c62.103757 0 115.843547-36.439858 140.995449-89.051653-3.215987-1.027996-6.455975-1.979992-9.651962-3.063988l-20.047922-9.883961-14.059945-6.931973c-17.567931 36.007859-54.547787 60.875762-97.23562 60.875762s-79.667689-24.871903-97.23562-60.879762l-14.063945 6.931973-17.95193 8.851966c-3.911985 1.383995-7.839969 2.719989-11.783954 4.011984 25.135902 52.659794 78.899692 89.139652 141.035449 89.139652z" fill="#30A9E5" /><path d="M715.251206 1013.996039h89.61565a26.079898 26.079898 0 0 0 26.035898-27.523892l-7.163972-128.659498h-108.487576V1013.996039zM309.032793 857.808649H200.261218l-7.163972 128.659498a26.071898 26.071898 0 0 0 26.031898 27.523892h89.903649v-156.18339zM659.611423 241.267058v97.22762c0 7.61197-0.583998 15.231941-1.699993 22.795911 2.179991 0.259999 4.379983 0.455998 6.631974 0.455998 33.34787 0 60.383764-27.035894 60.383764-60.383764 0-35.399862-30.307882-63.003754-65.315745-60.095765zM361.656587 338.490678V241.183058a59.215769 59.215769 0 0 0-4.93198-0.207999c-33.34787 0-60.383764 27.035894-60.383765 60.383764s27.035894 60.383764 60.383765 60.383764c2.251991 0 4.451983-0.195999 6.631974-0.455998a156.17939 156.17939 0 0 1-1.699994-22.795911z" fill="#F9D8B7" /><path d="M655.559439 220.19114l-0.048-0.048c-12.79995-12.359952-38.40785-41.08384-46.05182-79.25169-1.579994-7.895969-10.767958-10.811958-16.435935-5.355979-21.067918 20.275921-66.999738 51.0798-147.475424 44.207827-19.207925-1.639994-38.659849 2.59999-54.651787 13.867946a91.367643 91.367643 0 0 0-14.639943 12.85195c-4.759981 5.17598-9.583963 11.295956-13.071949 17.927929a14.143945 14.143945 0 0 0-1.523994 6.595975v107.50758c0 81.93568 67.039738 164.999355 148.975418 164.999355s148.975418-83.063676 148.975418-164.999355V230.4431c0-3.807985-1.319995-7.59997-4.051984-10.25196z" fill="#F9D8B7" /><path d="M317.208761 255.771001a60.091765 60.091765 0 0 1 44.447826-14.587943v-10.19996c0-2.283991 0.459998-4.571982 1.523994-6.595975 3.487986-6.631974 8.311968-12.75195 13.071949-17.927929a91.367643 91.367643 0 0 1 14.639943-12.85195c15.991938-11.267956 35.447862-15.507939 54.651787-13.867946 80.475686 6.875973 126.407506-23.931907 147.475424-44.207827 5.667978-5.455979 14.855942-2.53999 16.435935 5.355979 7.64397 38.167851 33.25187 66.891739 46.05182 79.25169l0.048 0.048c2.731989 2.65199 4.051984 6.443975 4.051984 10.25196v10.823958c18.167929-1.507994 35.019863 5.24398 47.075817 16.991933l3.535986-79.899688c2.68399-51.047801-23.915907-98.883614-67.667736-121.427525C608.615623 39.443846 564.031797 9.999961 512 9.999961s-96.615623 29.443885-130.55949 46.927817C337.688681 79.47169 311.088785 127.311503 313.772774 178.359303l3.435987 77.411698z" fill="#E8B16D" /><path d="M512 601.50565c42.687833 0 79.667689-24.871903 97.23562-60.875762l-2.091992-1.031996-7.279971-3.591986a33.727868 33.727868 0 0 1-12.391952-10.567958 33.735868 33.735868 0 0 1-6.475975-19.767923v-23.635908c-20.987918 13.463947-44.955824 21.459916-70.359725 21.459916-24.319905 0-47.303815-7.359971-67.635735-19.791922v21.967914a33.719868 33.719868 0 0 1-6.475975 19.767923 33.671868 33.671868 0 0 1-12.391952 10.571958l-5.359979 2.64399-4.007984 1.975992c17.567931 36.007859 54.547787 60.875762 97.23562 60.875762z" fill="#F9D8B7" /><path d="M576.11575 366.954567c-1.447994 0-2.907989-0.06-4.375983-0.176a53.551791 53.551791 0 0 1-36.727857-18.799926 53.559791 53.559791 0 0 1-12.67595-39.263847 53.551791 53.551791 0 0 1 18.799926-36.727856 53.463791 53.463791 0 0 1 39.263847-12.675951 53.551791 53.551791 0 0 1 36.731856 18.799927 53.567791 53.567791 0 0 1 12.675951 39.267846c-2.267991 28.15989-25.915899 49.575806-53.69179 49.575807z m-0.096-87.823657a33.643869 33.643869 0 0 0-21.915914 8.083968 33.679868 33.679868 0 0 0-11.823954 23.10391 33.663869 33.663869 0 0 0 7.971969 24.699903 33.691868 33.691868 0 0 0 23.099909 11.827954 33.759868 33.759868 0 0 0 24.695904-7.975969 33.671868 33.671868 0 0 0 11.827954-23.103909 33.647869 33.647869 0 0 0-7.971969-24.695904 33.687868 33.687868 0 0 0-23.10391-11.827954 34.211866 34.211866 0 0 0-2.779989-0.111999zM448.01225 366.958567c-1.467994 0-2.939989-0.06-4.419983-0.18a53.551791 53.551791 0 0 1-36.727856-18.799926 53.559791 53.559791 0 0 1-12.675951-39.263847c2.387991-29.627884 28.407889-51.815798 58.067773-49.407807 29.631884 2.387991 51.795798 28.435889 49.403807 58.067773a53.551791 53.551791 0 0 1-18.799926 36.727857 53.503791 53.503791 0 0 1-34.847864 12.85595z m-0.112-87.827657c-17.475932 0-32.347874 13.471947-33.779868 31.187878-0.727997 9.027965 2.103992 17.79993 7.975969 24.695903s14.075945 11.095957 23.09991 11.827954c9.035965 0.715997 17.80393-2.103992 24.699903-7.975969s11.095957-14.075945 11.827954-23.099909a33.667868 33.667868 0 0 0-7.975969-24.695904 33.687868 33.687868 0 0 0-23.103909-11.827954 33.26387 33.26387 0 0 0-2.74399-0.111999z" fill="#231F20" /><path d="M512 331.590705c-10.35196 0-19.875922-3.215987-26.123898-8.819966a9.999961 9.999961 0 1 1 13.351948-14.887942c1.907993 1.711993 6.399975 3.707986 12.77195 3.707986s10.863958-1.999992 12.77195-3.707986a9.999961 9.999961 0 0 1 13.351948 14.887942c-6.247976 5.603978-15.771938 8.819966-26.123898 8.819966zM512 427.934328a53.295792 53.295792 0 0 1-44.211827-23.499908 9.999961 9.999961 0 0 1 16.571935-11.195956c6.215976 9.203964 16.547935 14.695943 27.639892 14.695943s21.419916-5.495979 27.639892-14.695943a9.999961 9.999961 0 1 1 16.571935 11.195956A53.295792 53.295792 0 0 1 512 427.934328zM714.963207 1018.392022a9.999961 9.999961 0 0 1-9.999961-9.999961v-221.491135a9.999961 9.999961 0 1 1 19.999922 0v221.491135a9.999961 9.999961 0 0 1-9.999961 9.999961zM309.032793 1018.392022a9.999961 9.999961 0 0 1-9.999961-9.999961v-221.491135a9.999961 9.999961 0 1 1 19.999922 0v221.491135a9.999961 9.999961 0 0 1-9.999961 9.999961zM460.6762 328.638716a11.999953 11.999953 0 0 1-11.999953-11.999953v-2.211991a11.999953 11.999953 0 1 1 23.999907 0v2.211991a11.999953 11.999953 0 0 1-11.999954 11.999953zM566.691786 330.33071a11.999953 11.999953 0 0 1-11.999953-11.999953v-2.211992a11.999953 11.999953 0 1 1 23.999906 0v2.211992a11.999953 11.999953 0 0 1-11.999953 11.999953z" fill="#231F20" /><path d="M804.870856 1023.996H219.129144a36.211859 36.211859 0 0 1-26.203898-11.283956 36.227858 36.227858 0 0 1-9.811961-26.795895l19.047925-341.966664a68.799731 68.799731 0 0 1 52.123797-63.167754l79.583689-20.031921c11.359956-2.859989 22.795911-6.167976 33.991867-9.831962a9.999961 9.999961 0 0 1 12.135953 5.19598C404.184421 606.80963 456.000219 639.565502 512 639.565502c55.959781 0 107.763579-32.723872 131.971484-83.363675a9.995961 9.995961 0 0 1 12.067953-5.211979c11.751954 3.751985 22.171913 6.763974 31.847876 9.199964l81.82768 20.595919c29.483885 7.419971 50.431803 32.807872 52.127797 63.167754l19.047925 341.966664a36.227858 36.227858 0 0 1-9.811961 26.799895 36.251858 36.251858 0 0 1-26.207898 11.275956zM365.916571 572.525764a530.585927 530.585927 0 0 1-27.171894 7.61997l-79.579689 20.031922a48.887809 48.887809 0 0 0-37.039856 44.883824l-19.047925 341.966664a15.927938 15.927938 0 0 0 4.371983 11.939954A15.915938 15.915938 0 0 0 219.125144 1003.996078h585.741712a15.935938 15.935938 0 0 0 11.675954-5.02798 15.927938 15.927938 0 0 0 4.375983-11.939954l-19.047925-341.966664a48.887809 48.887809 0 0 0-37.043856-44.883824l-81.82768-20.59592a512.901996 512.901996 0 0 1-24.943903-7.003973c-28.935887 53.115793-85.343667 86.99166-146.059429 86.991661-60.739763-0.004-117.147542-33.895868-146.079429-87.04366z" fill="#231F20" /><path d="M556.547826 858.268647a9.999961 9.999961 0 0 1-6.671974-17.451931l31.319878-28.027891-31.319878-28.02789a9.999961 9.999961 0 1 1 13.335948-14.903942l39.647845 35.479861a9.999961 9.999961 0 0 1 0 14.903942l-39.647845 35.479861a9.959961 9.959961 0 0 1-6.663974 2.54799zM467.452174 858.268647a9.959961 9.959961 0 0 1-6.663974-2.54799l-39.647845-35.479861a9.991961 9.991961 0 0 1 0-14.903942l39.647845-35.479861a9.999961 9.999961 0 1 1 13.335948 14.903942l-31.319878 28.02789 31.319878 28.027891a9.999961 9.999961 0 0 1-6.671974 17.451931zM495.288065 859.080644a9.999961 9.999961 0 0 1-9.071964-14.191944l33.411869-72.383718a9.999961 9.999961 0 0 1 18.155929 8.383968l-33.407869 72.383717a10.015961 10.015961 0 0 1-9.087965 5.807977z" fill="#231F20" /><path d="M582.419725 895.844501h-140.167453c-46.367819 0-84.087672-37.719853-84.087671-84.087672s37.719853-84.087672 84.087671-84.087671h140.167453c46.363819 0 84.083672 37.719853 84.083671 84.087671s-37.719853 84.087672-84.083671 84.087672z m-140.167453-148.175422c-35.335862 0-64.08775 28.751888-64.087749 64.08775s28.751888 64.08775 64.087749 64.08775h140.167453c35.335862 0 64.08375-28.751888 64.08375-64.08775s-28.751888-64.08775-64.08375-64.08775h-140.167453zM512 659.565424c-63.659751 0-122.563521-37.223855-150.059414-94.83163a9.999961 9.999961 0 0 1 5.915977-13.811946c3.679986-1.203995 7.351971-2.44799 11.003957-3.735985l31.483877-15.52394a9.999961 9.999961 0 0 1 13.407948 4.583982c16.379936 33.571869 51.015801 55.263784 88.247655 55.263784s71.871719-21.691915 88.247655-55.263784a10.015961 10.015961 0 0 1 5.751978-5.07998 9.959961 9.959961 0 0 1 7.65597 0.495998l33.507869 16.523936c1.751993 0.583998 3.523986 1.131996 5.287979 1.679993l3.583986 1.123996a9.999961 9.999961 0 0 1 5.979977 13.835946c-27.511893 57.551775-86.395663 94.73963-150.015414 94.73963z m-126.739505-93.431635c25.939899 44.947824 74.523709 73.431713 126.739505 73.431713 52.151796 0 100.695607-28.419889 126.655505-73.279714l-25.223901-12.435951c-21.183917 35.323862-59.971766 57.659775-101.431604 57.659774-41.463838 0-80.251687-22.331913-101.431604-57.659774l-23.395908 11.535954a10.739958 10.739958 0 0 1-1.083996 0.459999 33.903868 33.903868 0 0 0-0.827997 0.287999zM804.870856 1023.996h-89.61565a9.999961 9.999961 0 0 1-9.999961-9.999961v-156.18339a9.999961 9.999961 0 0 1 9.999961-9.999961h108.483576a9.999961 9.999961 0 0 1 9.983961 9.443963l7.167972 128.659498a36.227858 36.227858 0 0 1-9.811961 26.799895 36.239858 36.239858 0 0 1-26.207898 11.279956z m-79.619689-19.999922h79.615689a15.935938 15.935938 0 0 0 11.675954-5.02798 15.927938 15.927938 0 0 0 4.375983-11.939954l-6.639974-119.215534h-89.027652V1003.996078zM309.032793 1023.996H219.129144a36.211859 36.211859 0 0 1-26.203898-11.283956 36.227858 36.227858 0 0 1-9.811961-26.795895l7.167972-128.659498a9.999961 9.999961 0 0 1 9.983961-9.443963h108.771575a9.999961 9.999961 0 0 1 9.999961 9.999961V1013.996039a10.003961 10.003961 0 0 1-10.003961 9.999961zM209.721181 867.81261l-6.639974 119.215534a15.927938 15.927938 0 0 0 4.371983 11.939954A15.915938 15.915938 0 0 0 219.129144 1003.996078h79.903688v-136.183468H209.721181zM664.547404 371.742548c-3.083988 0-5.939977-0.299999-7.823969-0.527998a9.991961 9.991961 0 0 1-8.699966-11.383956c1.059996-7.179972 1.591994-14.359944 1.591993-21.339916V241.263058a9.999961 9.999961 0 0 1 9.171965-9.963962 70.607724 70.607724 0 0 1 53.463791 18.363929 70.431725 70.431725 0 0 1 22.679911 51.695798c-0.004 38.807848-31.575877 70.383725-70.383725 70.383725z m5.06398-120.42753v87.17566c0 4.299983-0.175999 8.659966-0.531998 13.047949 25.6639-2.299991 45.847821-23.923907 45.847821-50.179804 0-14.219944-5.759978-27.351893-16.223936-36.979856a50.547803 50.547803 0 0 0-29.091887-13.063949zM356.724607 371.742548c-38.807848 0-70.383725-31.575877-70.383726-70.383725 0-38.811848 31.575877-70.383725 70.383726-70.383725 1.939992 0 3.859985 0.084 5.759977 0.243999a9.999961 9.999961 0 0 1 9.171964 9.967961v97.30762c0 6.999973 0.535998 14.179945 1.587994 21.335916a9.999961 9.999961 0 0 1-8.699966 11.383956c-1.875993 0.227999-4.735982 0.527998-7.819969 0.527998z m-5.063981-120.515529c-25.411901 2.54799-45.315823 24.059906-45.315823 50.131804 0 26.251897 20.179921 47.879813 45.843821 50.179804a163.027363 163.027363 0 0 1-0.527998-13.047949V251.227019z" fill="#231F20" /><path d="M510.636005 513.493994c-90.987645 0-158.975379-92.391639-158.975379-174.999316V230.983098c0-4.035984 0.923996-7.927969 2.67199-11.247956 3.435987-6.535974 8.335967-13.275948 14.563943-20.043922a101.775602 101.775602 0 0 1 16.239937-14.255944c17.047933-12.011953 38.787848-17.583931 61.25976-15.655939 77.223698 6.599974 120.663529-23.13991 139.687455-41.447838a19.767923 19.767923 0 0 1 19.591923-4.691982c6.919973 2.167992 12.127953 8.027969 13.583947 15.29194 7.243972 36.159859 32.619873 63.811751 43.195831 74.019711l0.072 0.068c4.503982 4.375983 7.083972 10.727958 7.083972 17.423932v108.051578c0 82.603677-67.987734 174.999316-158.975379 174.999316z m-72.927715-324.086734c-15.219941 0-29.587884 4.299983-41.055839 12.375952a81.599681 81.599681 0 0 0-13.039949 11.447955c-5.05598 5.491979-8.951965 10.811958-11.583955 15.815938-0.239999 0.455998-0.371999 1.143996-0.371999 1.935993v107.50758c0 88.711653 73.371713 154.999395 138.975457 154.999394s138.979457-66.287741 138.979457-154.999394V230.4431c0-1.287995-0.391998-2.46799-1.023996-3.079988l-0.099999-0.104-0.048-0.048c-14.667943-14.159945-40.675841-44.095828-48.75581-84.203671-21.703915 20.739919-70.327725 53.943789-154.991394 46.695818a83.791673 83.791673 0 0 0-6.983973-0.295999z" fill="#231F20" /><path d="M706.695239 268.254952c-2.56399 0-5.07998-0.983996-6.979972-2.835989-10.495959-10.21996-24.859903-15.38794-39.271847-14.187944a9.999961 9.999961 0 0 1-10.827958-9.963961v-10.823958c0-1.287995-0.391998-2.46799-1.023996-3.079988-14.815942-14.311944-40.823841-44.247827-48.907809-84.355671-21.703915 20.739919-70.327725 53.943789-154.991394 46.695818-17.755931-1.499994-34.831864 2.771989-48.039812 12.079953a81.599681 81.599681 0 0 0-13.039949 11.447955c-5.05598 5.491979-8.951965 10.811958-11.583955 15.811938-0.239999 0.455998-0.371999 1.143996-0.371999 1.935993v10.19996c0 2.795989-1.167995 5.463979-3.227987 7.355971a10.031961 10.031961 0 0 1-7.59997 2.60799 50.319803 50.319803 0 0 0-37.071856 12.175952 9.999961 9.999961 0 0 1-16.539935-7.107972L303.784813 178.799302c-2.895989-55.035785 25.787899-106.395584 73.079715-130.75949 5.21998-2.68799 10.695958-5.667978 16.411936-8.771965C425.464338 21.771915 465.524182 0 512 0s86.539662 21.771915 118.727536 39.267847c5.719978 3.107988 11.191956 6.083976 16.411936 8.771965 47.287815 24.363905 75.971703 75.723704 73.075715 130.839489l-3.531987 79.815688a9.995961 9.995961 0 0 1-9.987961 9.559963z m-37.083855-37.011855c9.779962 0.707997 19.279925 3.463986 27.907891 8.055968l2.71999-61.37976c2.48799-47.359815-21.951914-91.331643-62.255757-112.095562a865.664618 865.664618 0 0 1-16.803934-8.979965C590.975692 40.427842 553.395838 19.999922 512 19.999922s-78.975692 20.42392-109.175574 36.839856c-5.851977 3.179988-11.459955 6.227976-16.803934 8.979965-40.307843 20.763919-64.747747 64.735747-62.259757 112.011562l2.66399 60.039766a70.147726 70.147726 0 0 1 25.235901-6.707974v-0.175999c0-4.035984 0.923996-7.927969 2.67199-11.247956 3.435987-6.535974 8.335967-13.275948 14.563943-20.043922a101.775602 101.775602 0 0 1 16.239937-14.255944c17.047933-12.011953 38.787848-17.583931 61.25976-15.655939 77.223698 6.599974 120.663529-23.13991 139.687455-41.447838a19.767923 19.767923 0 0 1 19.591923-4.691982c6.919973 2.167992 12.127953 8.027969 13.583947 15.29194 7.243972 36.159859 32.619873 63.811751 43.195831 74.019711 4.575982 4.439983 7.155972 10.791958 7.155972 17.491932v0.795997z" fill="#231F20" /><path d="M512 611.505611c-44.819825 0-86.515662-26.099898-106.223585-66.49574a9.995961 9.995961 0 0 1 4.567982-13.351948l9.367963-4.619982a23.543908 23.543908 0 0 0 8.707966-7.455971 23.651908 23.651908 0 0 0 4.583983-13.911945v-21.967914a10.003961 10.003961 0 0 1 15.21594-8.531967c19.883922 12.159953 40.88384 18.323928 62.415756 18.323928 22.223913 0 44.687825-6.871973 64.963747-19.879922a10.007961 10.007961 0 0 1 15.399939 8.419967v23.639908c0 4.951981 1.583994 9.759962 4.583983 13.911945a23.519908 23.519908 0 0 0 8.707965 7.459971l9.371964 4.619982a10.003961 10.003961 0 0 1 4.571982 13.355948c-19.719923 40.387842-61.41576 66.48374-106.235585 66.48374z m-83.419674-66.53974c17.775931 28.555888 49.523807 46.539818 83.419674 46.539818s65.643744-17.98393 83.419674-46.539818a43.967828 43.967828 0 0 1-16.055937-13.675946c-5.475979-7.57997-8.371967-16.439936-8.371967-25.6239v-6.543975c-19.283925 9.435963-39.867844 14.363944-60.359765 14.363944-19.783923 0-39.103847-4.383983-57.631775-13.059949v5.23598c0 9.183964-2.895989 18.04793-8.371967 25.6239a43.879829 43.879829 0 0 1-16.047937 13.679946z" fill="#231F20" /></svg>